<svg data-name="Layer 1" xmlns="http://www.w3.org/2000/svg" viewBox="0 0 90 90"><polygon points="53.4 15.27 60.23 19 70.33 13.11 76.33 19 71.51 29.32 73.97 36.9 85.26 40.38 85.26 49.14 74.69 52.39 71.16 59.88 76.1 70.65 70.57 76.17 61.29 71.37 52.11 75.69 49.28 86.5 41.89 86.5 37.66 74.73 30.64 71.61 19.67 77.49 13.79 71.37 18.72 60.92 15.2 53.11 4.74 49.81 4.74 41.34 15.66 37.61 18.72 29.44 13.32 19.23 19.54 13.11 28.6 18.27 37.77 14.43 41.06 3.5 49.28 3.5 53.4 15.27" fill="none" stroke="#000" stroke-linecap="round" stroke-miterlimit="10" stroke-width="5.48" opacity="0.7" style="isolation:isolate"/><ellipse cx="44.95" cy="44.68" rx="13.61" ry="13.91" fill="none" stroke="#000" stroke-linecap="round" stroke-linejoin="round" stroke-width="4.88" opacity="0.7" style="isolation:isolate"/><circle cx="49.21" cy="3.57" r="2.65"/><circle cx="41.16" cy="3.57" r="2.65"/><circle cx="19.56" cy="13.14" r="2.65"/><circle cx="13.44" cy="19.61" r="2.65"/><circle cx="70.09" cy="13.14" r="2.65"/><circle cx="76.37" cy="19.01" r="2.65"/><circle cx="85.26" cy="40.68" r="2.65"/><circle cx="85.26" cy="48.95" r="2.65"/><circle cx="75.89" cy="70.52" r="2.65"/><circle cx="70.58" cy="75.83" r="2.65"/><circle cx="49.19" cy="86.43" r="2.65"/><circle cx="42.29" cy="86.43" r="2.65"/><circle cx="19.56" cy="77.11" r="2.65"/><circle cx="13.86" cy="71.05" r="2.65"/><circle cx="4.74" cy="49.65" r="2.65"/><circle cx="4.74" cy="41.48" r="2.65"/></svg>