<svg data-name="svg44" xmlns="http://www.w3.org/2000/svg" viewBox="0 0 251 215.3"><g id="11ec1a2e-9ce4-4da9-ab49-ebce94bf211c" data-name="Stroke"><path id="8ba9fc79-07c9-4236-8276-22b8907eb00b" data-name="rect8" stroke="#d6d6d6" d="M86.1,98.8H318.8a3.1,3.1,0,0,1,3.2,3.1V299a3.1,3.1,0,0,1-3.2,3.1H86.1A3.1,3.1,0,0,1,83,299V101.9A3.1,3.1,0,0,1,86.1,98.8Z" fill="none" transform="translate(-77 -92.8)" stroke-linecap="round" stroke-linejoin="round" stroke-width="12" opacity="0.7" style="isolation:isolate"/><path id="7c33b2df-c70e-47a0-84b9-d20463ddbdb1" data-name="line10" stroke="#d6d6d6" d="M162.2,172.6h39.2" fill="none" transform="translate(-77 -92.8)" stroke-linecap="round" stroke-linejoin="round" stroke-width="12" opacity="0.7" style="isolation:isolate"/><path id="e5558a4c-42ad-4d69-b3ca-26774ed9b968" data-name="line12" stroke="#d6d6d6" d="M106.8,128.2l40.7,23.1" fill="none" transform="translate(-77 -92.8)" stroke-linecap="round" stroke-linejoin="round" stroke-width="12" opacity="0.7" style="isolation:isolate"/><path id="bbd0cba2-8eba-4f98-a081-601dce18408a" data-name="line14" stroke="#d6d6d6" d="M147.5,151.3l-40.4,22.9" fill="none" transform="translate(-77 -92.8)" stroke-linecap="round" stroke-linejoin="round" stroke-width="12" opacity="0.7" style="isolation:isolate"/></g><g id="a9bb72e1-58e3-48b5-b907-52d2f2bb550c" data-name="Fill"><path id="187c937a-7508-4155-8534-b711747edd57" data-name="circle17" d="M112.8,127.9a6.1,6.1,0,0,1-5.7,6.3,6,6,0,0,1-6.3-5.7,6,6,0,1,1,12-.6Z" transform="translate(-77 -92.8)" fill="#c6c6c6"/><path id="a90f9ef3-912a-476a-b713-edf8e8a781bd" data-name="circle19" d="M112.8,174.3a6,6,0,1,1-12,.7,6,6,0,0,1,5.7-6.3A5.9,5.9,0,0,1,112.8,174.3Z" transform="translate(-77 -92.8)" fill="#c6c6c6"/><path id="ac7dff6a-978d-4366-90ee-6442d487cd5a" data-name="circle21" d="M207.9,172.3a6,6,0,0,1-5.7,6.3,5.9,5.9,0,0,1-6.3-5.6,6,6,0,1,1,12-.7Z" transform="translate(-77 -92.8)" fill="#c6c6c6"/><path id="e0c58321-ce02-465e-9993-9d6c8bcd2a95" data-name="circle23" d="M167.6,172a6.1,6.1,0,0,1-5.7,6.4,6,6,0,0,1-6.3-5.7,5.9,5.9,0,0,1,5.6-6.3A6,6,0,0,1,167.6,172Z" transform="translate(-77 -92.8)" fill="#c6c6c6"/><path id="931d9806-042c-4add-91b2-9d9776f7eeda" data-name="circle25" d="M153.5,150.9a6,6,0,1,1-12,.7,6,6,0,0,1,12-.7Z" transform="translate(-77 -92.8)" fill="#c6c6c6"/><path id="0d7c593c-3734-49cf-a581-ad67fce06511" data-name="circle27" d="M312.2,98.5a6.1,6.1,0,0,1-5.7,6.3,5.9,5.9,0,0,1-6.3-5.6,6,6,0,0,1,5.6-6.4A6.2,6.2,0,0,1,312.2,98.5Z" transform="translate(-77 -92.8)" fill="#c6c6c6"/><path id="ae6ca95c-f57b-4215-9263-8848e5e98d4c" data-name="circle29" d="M328,116.6a6.1,6.1,0,0,1-5.7,6.3,6,6,0,0,1-6.3-5.7,5.9,5.9,0,0,1,5.6-6.3A6.1,6.1,0,0,1,328,116.6Z" transform="translate(-77 -92.8)" fill="#c6c6c6"/><path id="6f2422d8-ffe0-4bc8-afdd-23a8495e285b" data-name="circle31" d="M328,287.1a6,6,0,1,1-12,.7,5.9,5.9,0,0,1,5.6-6.3A6,6,0,0,1,328,287.1Z" transform="translate(-77 -92.8)" fill="#c6c6c6"/><path id="dab5d763-1bbc-4ba5-b456-1a2b2e609d13" data-name="circle33" d="M314.5,301.8a6,6,0,0,1-12,.7,6.2,6.2,0,0,1,5.7-6.4A6.1,6.1,0,0,1,314.5,301.8Z" transform="translate(-77 -92.8)" fill="#c6c6c6"/><path id="62fd899b-cc27-44f5-921a-f7cfb9d8d073" data-name="circle35" d="M107.2,98.5a5.9,5.9,0,0,1-5.6,6.3,6,6,0,0,1-6.4-5.6,6,6,0,1,1,12-.7Z" transform="translate(-77 -92.8)" fill="#c6c6c6"/><path id="d587876c-f291-484f-a579-42a19ceb46bc" data-name="circle37" d="M89,116.6a6,6,0,0,1-12,.6,6,6,0,1,1,12-.6Z" transform="translate(-77 -92.8)" fill="#c6c6c6"/><path id="76288372-249a-4c3c-9d9b-b575d29bd595" data-name="circle39" d="M89,287.1a6.2,6.2,0,0,1-5.7,6.4,6.1,6.1,0,0,1-6.3-5.7,6,6,0,0,1,12-.7Z" transform="translate(-77 -92.8)" fill="#c6c6c6"/><path id="7a939685-a430-45ee-b07b-6547d2024bb2" data-name="circle41" d="M101.7,301.8a6,6,0,0,1-5.7,6.3,5.9,5.9,0,0,1-6.3-5.6,6,6,0,1,1,12-.7Z" transform="translate(-77 -92.8)" fill="#c6c6c6"/></g></svg>