<svg id="e7f900e8-2abe-4b4d-9b6d-f753f4f78dea" data-name="Layer 1" xmlns="http://www.w3.org/2000/svg" viewBox="0 0 90 90"><title>download</title><path d="M73.39,70.33l.08-63.2a3.86,3.86,0,0,0-3.86-3.86H20.82A3.86,3.86,0,0,0,17,7.1l-.58,75.74a3.86,3.86,0,0,0,3.86,3.89H69.53a3.86,3.86,0,0,0,3.86-3.86V70.33" fill="none" stroke="#16bece" stroke-linecap="round" stroke-linejoin="round" stroke-width="4.05" opacity="0.7"/><circle cx="73.38" cy="81.42" r="2.03" fill="#16bece"/><circle cx="68.8" cy="86.73" r="2.03" fill="#16bece"/><circle cx="22.54" cy="86.73" r="2.03" fill="#16bece"/><circle cx="16.38" cy="81.45" r="1.85" fill="#16bece"/><circle cx="73.45" cy="8.21" r="2.03" fill="#16bece"/><circle cx="68.52" cy="3.27" r="2.03" fill="#16bece"/><circle cx="16.97" cy="8.39" r="2.03" fill="#16bece"/><circle cx="22.63" cy="3.27" r="2.03" fill="#16bece"/><circle cx="44.91" cy="27.71" r="2.03" fill="#16bece"/><line x1="44.91" y1="50.76" x2="44.91" y2="27.71" fill="none" stroke="#16bece" stroke-linecap="round" stroke-linejoin="round" stroke-width="4.05" opacity="0.7"/><polyline points="52.08 43.65 44.91 50.81 37.92 43.83" fill="none" stroke="#16bece" stroke-linecap="round" stroke-linejoin="round" stroke-width="4.05" opacity="0.7"/><circle cx="37.92" cy="43.82" r="2.03" fill="#16bece" opacity="0.9"/><circle cx="52.08" cy="43.65" r="2.03" fill="#16bece" opacity="0.9"/><circle cx="29.25" cy="52.36" r="2.03" fill="#16bece" opacity="0.9"/><circle cx="60.75" cy="52.36" r="2.03" fill="#16bece" opacity="0.9"/><circle cx="45" cy="62.29" r="2.03" fill="#16bece" opacity="0.9"/><polyline points="29.25 52.36 29.25 62.29 60.75 62.29 60.75 52.36" fill="none" stroke="#16bece" stroke-linecap="round" stroke-linejoin="round" stroke-width="4.05" opacity="0.7"/></svg>