<svg data-name="Layer 1" xmlns="http://www.w3.org/2000/svg" viewBox="0 0 90 90"><ellipse cx="69.19" cy="10.93" rx="2.49" ry="2.51"/><ellipse cx="69.19" cy="34.46" rx="2.49" ry="2.51"/><ellipse cx="8.34" cy="80.3" rx="2.49" ry="2.51"/><ellipse cx="8.05" cy="58.77" rx="2.49" ry="2.51"/><ellipse cx="8.05" cy="34.46" rx="2.49" ry="2.51"/><ellipse cx="8.05" cy="10.93" rx="2.49" ry="2.51"/><ellipse cx="38.2" cy="87.3" rx="2.49" ry="2.51"/><ellipse cx="38.2" cy="66.56" rx="2.49" ry="2.51"/><ellipse cx="38.2" cy="42.28" rx="2.49" ry="2.51"/><ellipse cx="38.2" cy="18.26" rx="2.49" ry="2.51"/><ellipse cx="38.2" cy="2.7" rx="2.49" ry="2.51"/><ellipse cx="38.61" cy="10.48" rx="30.56" ry="7.78" fill="none" stroke="#000" stroke-linecap="round" stroke-miterlimit="10" stroke-width="4.99" opacity="0.7" style="isolation:isolate"/><path d="M69.2,34.46c0,4.32-13.69,7.78-30.56,7.78S8.05,38.73,8.05,34.46" fill="none" stroke="#000" stroke-linecap="round" stroke-miterlimit="10" stroke-width="4.99" opacity="0.7" style="isolation:isolate"/><path d="M52.34,65.73a109.25,109.25,0,0,1-13.71.9c-16.88,0-30.56-3.49-30.56-7.78" fill="none" stroke="#000" stroke-linecap="round" stroke-miterlimit="10" stroke-width="4.99" opacity="0.7" style="isolation:isolate"/><line x1="69.19" y1="47.88" x2="69.19" y2="10.93" fill="none" stroke="#000" stroke-linecap="round" stroke-miterlimit="10" stroke-width="4.99" opacity="0.7" style="isolation:isolate"/><path d="M8.05,11V79.49c0,4.32,13.69,7.78,30.56,7.78A104.08,104.08,0,0,0,55.21,86" fill="none" stroke="#000" stroke-linecap="round" stroke-miterlimit="10" stroke-width="4.99" opacity="0.7" style="isolation:isolate"/><line x1="69.24" y1="86.64" x2="69.24" y2="61.16" fill="none" stroke="#000" stroke-linecap="round" stroke-miterlimit="10" stroke-width="4.99" opacity="0.7" style="isolation:isolate"/><line x1="56.6" y1="73.88" x2="81.94" y2="73.88" fill="none" stroke="#000" stroke-linecap="round" stroke-miterlimit="10" stroke-width="4.99" opacity="0.7" style="isolation:isolate"/><path d="M55.29,71.79a2.48,2.48,0,0,1,3.43.76v0A2.52,2.52,0,0,1,57.95,76a2.48,2.48,0,0,1-3.43-.76v0A2.52,2.52,0,0,1,55.29,71.79Z"/><path d="M80.61,71.78a2.48,2.48,0,0,1,3.43.76v0A2.52,2.52,0,0,1,83.28,76a2.48,2.48,0,0,1-3.43-.76v0A2.52,2.52,0,0,1,80.61,71.78Z"/><path d="M67.94,59a2.48,2.48,0,0,1,3.43.76v0a2.52,2.52,0,0,1-.78,3.46,2.48,2.48,0,0,1-3.43-.76v0A2.52,2.52,0,0,1,67.94,59Z"/><path d="M68,84.52a2.48,2.48,0,0,1,3.43.76v0a2.52,2.52,0,0,1-.78,3.46A2.48,2.48,0,0,1,67.28,88v0A2.52,2.52,0,0,1,68,84.52Z"/></svg>