<svg data-name="Layer 1" xmlns="http://www.w3.org/2000/svg" viewBox="0 0 90 90"><g id="e35d0cc3-d52b-4a96-a4a9-6462ae1d32df" data-name="icon"><path d="M85.09,27.27H4.8a.78.78,0,0,1-.8-.8V5.2a.78.78,0,0,1,.8-.8H85.2a.78.78,0,0,1,.8.8V26.59A1,1,0,0,1,85.09,27.27Z" fill="none" stroke="#000" stroke-linecap="round" stroke-linejoin="round" stroke-width="6.05"/><path d="M85.09,56.55H4.8a.78.78,0,0,1-.8-.8V34.36a.78.78,0,0,1,.8-.8H85.2a.78.78,0,0,1,.8.8V55.75A1,1,0,0,1,85.09,56.55Z" fill="none" stroke="#000" stroke-linecap="round" stroke-linejoin="round" stroke-width="6.05"/><path d="M85.09,85.6H4.8a.78.78,0,0,1-.8-.8V63.53a.78.78,0,0,1,.8-.8H85.2a.78.78,0,0,1,.8.8V84.91A1,1,0,0,1,85.09,85.6Z" fill="none" stroke="#000" stroke-linecap="round" stroke-linejoin="round" stroke-width="6.05"/><line x1="15.78" y1="4.4" x2="15.78" y2="26.7" fill="none" stroke="#000" stroke-linecap="round" stroke-linejoin="round" stroke-width="6.05"/><line x1="25.96" y1="4.4" x2="25.96" y2="26.7" fill="none" stroke="#000" stroke-linecap="round" stroke-linejoin="round" stroke-width="6.05"/><line x1="25.96" y1="35.39" x2="25.96" y2="55.86" fill="none" stroke="#000" stroke-linecap="round" stroke-linejoin="round" stroke-width="6.05"/><line x1="15.78" y1="34.14" x2="15.78" y2="56.44" fill="none" stroke="#000" stroke-linecap="round" stroke-linejoin="round" stroke-width="6.05"/><line x1="15.78" y1="64.56" x2="15.78" y2="84.57" fill="none" stroke="#000" stroke-linecap="round" stroke-linejoin="round" stroke-width="6.05"/><line x1="25.96" y1="64.56" x2="25.96" y2="84.57" fill="none" stroke="#000" stroke-linecap="round" stroke-linejoin="round" stroke-width="6.05"/><circle cx="75.48" cy="15.38" r="2.4"/><circle cx="75.48" cy="45" r="2.4"/><circle cx="75.48" cy="74.39" r="2.4"/></g></svg>