<svg data-name="Layer 1" xmlns="http://www.w3.org/2000/svg" viewBox="0 0 90 90"><circle cx="45" cy="68.06" r="2.73" transform="translate(-30.7 98.49) rotate(-78.43)"/><circle cx="45" cy="55.17" r="2.73" transform="translate(-18.08 88.19) rotate(-78.43)"/><circle cx="45" cy="26.65" r="2.73" transform="translate(9.86 65.39) rotate(-78.43)"/><circle cx="45" cy="6.8" r="2.73" transform="translate(29.31 49.52) rotate(-78.43)"/><circle cx="86.27" cy="80.38" r="2.73" transform="translate(-9.77 148.77) rotate(-78.43)"/><circle cx="3.73" cy="80.38" r="2.73" transform="translate(-75.76 67.91) rotate(-78.43)"/><path d="M50.2,9.77,85.86,75.16A5.55,5.55,0,0,1,85.77,81a5.94,5.94,0,0,1-5.11,2.93H9.33A5.94,5.94,0,0,1,4.23,81a5.55,5.55,0,0,1-.09-5.85L39.8,9.77A5.94,5.94,0,0,1,42,7.49a5.87,5.87,0,0,1,6,0A5.94,5.94,0,0,1,50.2,9.77Z" fill="none" stroke="#000" stroke-linecap="round" stroke-miterlimit="10" stroke-width="5.72" opacity="0.7" style="isolation:isolate"/><line x1="45" y1="26.77" x2="45" y2="55.29" fill="none" stroke="#000" stroke-linecap="round" stroke-miterlimit="10" stroke-width="5.72" opacity="0.7" style="isolation:isolate"/></svg>