<svg data-name="Layer 1" xmlns="http://www.w3.org/2000/svg" viewBox="0 0 90 90"><line x1="29.49" y1="25.14" x2="61.68" y2="65.69" fill="none" stroke="#000" stroke-linecap="round" stroke-miterlimit="10" stroke-width="6.08" opacity="0.7" style="isolation:isolate"/><line x1="61.68" y1="25.14" x2="29.49" y2="65.69" fill="none" stroke="#000" stroke-linecap="round" stroke-miterlimit="10" stroke-width="6.08" opacity="0.7" style="isolation:isolate"/><circle cx="29.48" cy="25.14" r="2.21" transform="translate(-8.98 29.87) rotate(-47.47)"/><circle cx="45.57" cy="45.41" r="2.21" transform="translate(-18.7 48.3) rotate(-47.47)"/><circle cx="29.49" cy="65.69" r="2.21" transform="translate(-38.85 43.02) rotate(-47.47)"/><circle cx="61.68" cy="65.69" r="2.21" transform="translate(-28.42 66.74) rotate(-47.47)"/><circle cx="61.67" cy="25.14" r="2.21" transform="translate(1.45 53.6) rotate(-47.47)"/><path d="M45,90a2.32,2.32,0,1,1,2.32-2.32h0A2.32,2.32,0,0,1,45,90Z"/><path d="M45,4.63A2.32,2.32,0,1,1,47.3,2.32,2.32,2.32,0,0,1,45,4.63Z"/><path d="M2.32,47.3A2.32,2.32,0,1,1,4.63,45,2.32,2.32,0,0,1,2.32,47.3Z"/><path d="M87.68,47.3A2.32,2.32,0,1,1,90,45a2.32,2.32,0,0,1-2.32,2.34Z"/><path d="M45,90A45,45,0,1,1,90,45h0A45,45,0,0,1,45,90ZM45,4.59A40.39,40.39,0,1,0,85.38,45h0A40.44,40.44,0,0,0,45,4.59Z" opacity="0.7" style="isolation:isolate"/></svg>