<svg data-name="Layer 1" xmlns="http://www.w3.org/2000/svg" viewBox="0 0 90 90"><rect x="3.94" y="37.07" width="82.12" height="36.05" fill="none" stroke="#231f20" stroke-linecap="round" stroke-linejoin="round" stroke-width="6.32"/><rect x="22.23" y="58.77" width="39.31" height="5.94" rx="1.51" ry="1.51" fill="#231f20"/><rect x="13.91" y="50.94" width="14.4" height="5.94" rx="1.51" ry="1.51" fill="#231f20"/><rect x="13.91" y="43.64" width="6.08" height="5.94" rx="1.51" ry="1.51" fill="#231f20"/><rect x="13.91" y="58.77" width="6.08" height="5.94" rx="1.51" ry="1.51" fill="#231f20"/><rect x="22.23" y="43.64" width="6.08" height="5.94" rx="1.51" ry="1.51" fill="#231f20"/><rect x="30.5" y="43.64" width="6.08" height="5.94" rx="1.51" ry="1.51" fill="#231f20"/><rect x="38.82" y="43.64" width="6.08" height="5.94" rx="1.51" ry="1.51" fill="#231f20"/><rect x="47.14" y="43.64" width="6.08" height="5.94" rx="1.51" ry="1.51" fill="#231f20"/><rect x="55.41" y="43.64" width="6.08" height="5.94" rx="1.51" ry="1.51" fill="#231f20"/><rect x="63.73" y="43.64" width="6.08" height="5.94" rx="1.51" ry="1.51" fill="#231f20"/><rect x="72.05" y="43.64" width="6.08" height="5.94" rx="1.51" ry="1.51" fill="#231f20"/><rect x="30.5" y="50.94" width="6.08" height="5.94" rx="1.51" ry="1.51" fill="#231f20"/><rect x="38.82" y="50.94" width="6.08" height="5.94" rx="1.51" ry="1.51" fill="#231f20"/><rect x="47.14" y="50.94" width="6.08" height="5.94" rx="1.51" ry="1.51" fill="#231f20"/><rect x="55.41" y="50.94" width="6.08" height="5.94" rx="1.51" ry="1.51" fill="#231f20"/><rect x="63.73" y="50.94" width="6.08" height="5.94" rx="1.51" ry="1.51" fill="#231f20"/><rect x="63.73" y="58.77" width="6.08" height="5.94" rx="1.51" ry="1.51" fill="#231f20"/><rect x="72.05" y="50.94" width="6.08" height="13.77" rx="1.51" ry="1.51" fill="#231f20"/><path d="M45,37.07s-3.26-9.73,5.64-10.46a8.37,8.37,0,0,0,7.88-9.73" fill="none" stroke="#231f20" stroke-linecap="round" stroke-linejoin="round" stroke-width="6.32"/></svg>