<svg data-name="Layer 1" xmlns="http://www.w3.org/2000/svg" viewBox="0 0 90 90"><circle cx="10.64" cy="86.7" r="2.71" transform="translate(-76.44 79.74) rotate(-78.43)"/><circle cx="40.07" cy="86.7" r="2.71" transform="translate(-52.9 108.56) rotate(-78.43)"/><circle cx="10.64" cy="3.3" r="2.71" transform="translate(5.28 13.06) rotate(-78.43)"/><circle cx="40.07" cy="3.3" r="2.71" transform="translate(28.8 41.89) rotate(-78.43)"/><circle cx="49.89" cy="43.66" r="2.71" transform="matrix(0.2, -0.98, 0.98, 0.2, -2.9, 83.78)"/><circle cx="79.36" cy="43.67" r="2.71" transform="translate(20.66 112.66) rotate(-78.43)"/><path d="M10.76,3.31,50.1,42.69a1.23,1.23,0,0,1,0,1.7L10.65,86.58" fill="none" stroke="#000" stroke-linecap="round" stroke-miterlimit="10" stroke-width="5.6" opacity="0.7" style="isolation:isolate"/><path d="M40.15,3.31,79.54,42.69a1.23,1.23,0,0,1,0,1.7L40.09,86.58" fill="none" stroke="#000" stroke-linecap="round" stroke-miterlimit="10" stroke-width="5.6" opacity="0.7" style="isolation:isolate"/></svg>