<svg data-name="Layer 1" xmlns="http://www.w3.org/2000/svg" viewBox="0 0 90 90"><g id="c0050def-4a9d-4291-862b-fbf1020c928e" data-name="icon"><g id="74fa5f21-e8c9-4f53-b31d-7bd775198835" data-name="Stroke"><path d="M63.33,16.25a19.9,19.9,0,1,1-36.67,0" fill="none" stroke="#fff" stroke-linecap="round" stroke-miterlimit="10" stroke-width="5.36" opacity="0.7" style="isolation:isolate"/><path d="M2.57,86.32a42.43,42.43,0,1,1,84.86-.81v.81" fill="none" stroke="#fff" stroke-linecap="round" stroke-miterlimit="10" stroke-width="5.36" opacity="0.7" style="isolation:isolate"/></g><g id="3e714c1c-625f-41f4-82f7-0865569bef9e" data-name="Fill"><circle cx="2.57" cy="86.32" r="2.68" fill="#fff" opacity="0.9" style="isolation:isolate"/><circle cx="26.67" cy="16.25" r="2.68" fill="#fff" opacity="0.9" style="isolation:isolate"/><circle cx="63.22" cy="16.25" r="2.68" fill="#fff" opacity="0.9" style="isolation:isolate"/><circle cx="87.43" cy="86.32" r="2.68" fill="#fff" opacity="0.9" style="isolation:isolate"/><path d="M41.92,4a3.08,3.08,0,0,1,3-3h0a3.08,3.08,0,0,1,3,3h0a3.08,3.08,0,0,1-3,3h0a3.08,3.08,0,0,1-3-3Z" fill="#fff"/><path d="M53.32,9.26h0a3,3,0,0,1-1.16-4.07h0A3,3,0,0,1,56.23,4h0A3,3,0,0,1,57.4,8.1h0a3,3,0,0,1-2.56,1.51h0A3.58,3.58,0,0,1,53.32,9.26Z" fill="#fff"/><path d="M32.49,8.1A2.94,2.94,0,0,1,33.65,4h0a2.94,2.94,0,0,1,4.07,1.16h0a3,3,0,0,1-1,4.07h0a3.22,3.22,0,0,1-1.51.35h0A2.94,2.94,0,0,1,32.49,8.1Z" fill="#fff"/></g></g></svg>