<svg data-name="Layer 1" xmlns="http://www.w3.org/2000/svg" viewBox="0 0 90 90"><g id="9904c2d1-4537-4519-ab1d-379ff6a6e161" data-name="Stroke"><path d="M63.19,16.41a19.8,19.8,0,1,1-36.5,0" fill="none" stroke="#21b21e" stroke-linecap="round" stroke-miterlimit="10" stroke-width="5.34" opacity="0.7" style="isolation:isolate"/><path d="M2.79,86.19a42.21,42.21,0,0,1,84.42-.9v.9" fill="none" stroke="#21b21e" stroke-linecap="round" stroke-miterlimit="10" stroke-width="5.34" opacity="0.7" style="isolation:isolate"/></g><circle cx="2.76" cy="86.17" r="2.67" fill="#21b21e" opacity="0.9" style="isolation:isolate"/><circle cx="26.69" cy="16.41" r="2.67" fill="#21b21e" opacity="0.9" style="isolation:isolate"/><circle cx="63.18" cy="16.41" r="2.67" fill="#21b21e" opacity="0.9" style="isolation:isolate"/><circle cx="87.24" cy="86.17" r="2.67" fill="#21b21e" opacity="0.9" style="isolation:isolate"/><path d="M41.94,4.17a3,3,0,0,1,3-3h0a3,3,0,0,1,3,3h0a3,3,0,0,1-3,3h0a3,3,0,0,1-3-3Z" fill="#21b21e"/><path d="M53.31,9.4h0a3,3,0,0,1-1.12-4.1h0a3,3,0,0,1,4.1-1.1h0a3,3,0,0,1,1.11,4.09h0a3,3,0,0,1-2.6,1.51h0A3,3,0,0,1,53.31,9.4Z" fill="#21b21e"/><path d="M32.48,8.29a3,3,0,0,1,1.1-4.1h0a3,3,0,0,1,4.1,1.1h0a3,3,0,0,1-1.1,4.1h0a3,3,0,0,1-1.5.4h0A3,3,0,0,1,32.48,8.29Z" fill="#21b21e"/></svg>