<svg data-name="Layer 1" xmlns="http://www.w3.org/2000/svg" viewBox="0 0 90 90"><g id="1963f33c-3005-4f83-89a4-3545db5aec99" data-name="Layer 4"><g id="5a17197e-7372-4159-a829-d8569e993fd2" data-name="Stroke"><path d="M63.26,16.28a19.88,19.88,0,1,1-36.63,0" fill="none" stroke="#07b8d6" stroke-linecap="round" stroke-miterlimit="10" stroke-width="5.36" opacity="0.7" style="isolation:isolate"/><path d="M2.67,86.28a42.33,42.33,0,1,1,84.65-.81v.81" fill="none" stroke="#07b8d6" stroke-linecap="round" stroke-miterlimit="10" stroke-width="5.36" opacity="0.7" style="isolation:isolate"/></g><g id="73128f1b-7765-4030-829e-a84a17278038" data-name="Fill"><circle cx="2.67" cy="86.28" r="2.67" fill="#07b8d6" opacity="0.9" style="isolation:isolate"/><circle cx="26.63" cy="16.28" r="2.67" fill="#07b8d6" opacity="0.9" style="isolation:isolate"/><circle cx="63.26" cy="16.28" r="2.67" fill="#07b8d6" opacity="0.9" style="isolation:isolate"/><circle cx="87.33" cy="86.28" r="2.67" fill="#07b8d6" opacity="0.9" style="isolation:isolate"/><path d="M42,4.07a3.08,3.08,0,0,1,3-3h0a3.08,3.08,0,0,1,3,3h0a3.08,3.08,0,0,1-3,3h0a3,3,0,0,1-3-3Z" fill="#07b8d6"/><path d="M53.37,9.3h0a3,3,0,0,1-1.16-4.07h0a3,3,0,0,1,4.07-1.16h0a3,3,0,0,1,1.16,4.07h0a3,3,0,0,1-2.56,1.51h0A3.22,3.22,0,0,1,53.37,9.3Z" fill="#07b8d6"/><path d="M32.44,8.14A2.94,2.94,0,0,1,33.6,4.07h0a2.94,2.94,0,0,1,4.07,1.16h0a3,3,0,0,1-1,4.07h0a3.22,3.22,0,0,1-1.51.35h0A3.08,3.08,0,0,1,32.44,8.14Z" fill="#07b8d6"/></g></g></svg>