<svg data-name="Layer 1" xmlns="http://www.w3.org/2000/svg" viewBox="0 0 90 90"><g id="5d4ab96d-b8d3-49e3-84f7-2bd778ca83c3" data-name="Stroke"><path d="M63.23,16.35a19.84,19.84,0,1,1-36.58,0" fill="none" stroke="#f80c27" stroke-linecap="round" stroke-miterlimit="10" stroke-width="5.35" opacity="0.7" style="isolation:isolate"/><path d="M2.7,86.28a42.3,42.3,0,1,1,84.6-.9v.9" fill="none" stroke="#f80c27" stroke-linecap="round" stroke-miterlimit="10" stroke-width="5.35" opacity="0.7" style="isolation:isolate"/></g><circle cx="2.67" cy="86.26" r="2.67" fill="#f80c27" opacity="0.9" style="isolation:isolate"/><circle cx="26.65" cy="16.35" r="2.67" fill="#f80c27" opacity="0.9" style="isolation:isolate"/><circle cx="63.22" cy="16.35" r="2.67" fill="#f80c27" opacity="0.9" style="isolation:isolate"/><circle cx="87.33" cy="86.26" r="2.67" fill="#f80c27" opacity="0.9" style="isolation:isolate"/><path d="M41.93,4.08a3,3,0,0,1,3-3h0a3,3,0,0,1,3,3h0a3,3,0,0,1-3,3h0a3,3,0,0,1-3-3Z" fill="#f80c27"/><path d="M53.33,9.32h0A3,3,0,0,1,52.2,5.21h0A3,3,0,0,1,56.3,4.1h0a3,3,0,0,1,1.12,4.09h0a3,3,0,0,1-2.61,1.51h0A3,3,0,0,1,53.33,9.32Z" fill="#f80c27"/><path d="M32.45,8.21A3,3,0,0,1,33.56,4.1h0a3,3,0,0,1,4.11,1.11h0a3,3,0,0,1-1.11,4.1h0a3,3,0,0,1-1.5.4h0A3,3,0,0,1,32.45,8.21Z" fill="#f80c27"/></svg>