<svg data-name="Layer 1" xmlns="http://www.w3.org/2000/svg" viewBox="0 0 90 90"><path d="M65.12,39.42l8.27,12.07a1.12,1.12,0,0,0,1.56.29l0,0,12.29-9.07" fill="none" stroke="#000" stroke-linecap="round" stroke-miterlimit="10" stroke-width="5.23" opacity="0.7" style="isolation:isolate"/><path d="M74.25,52.26a29.78,29.78,0,0,0,.79-6.9A36.13,36.13,0,1,0,38.91,81.49h0" fill="none" stroke="#000" stroke-linecap="round" stroke-miterlimit="10" stroke-width="5.23" opacity="0.7" style="isolation:isolate"/><circle cx="2.94" cy="41.87" r="2.5" transform="translate(-38.67 36.35) rotate(-78.43)"/><circle cx="22.49" cy="50.09" r="2.5" transform="translate(-31.1 62.08) rotate(-78.43)"/><circle cx="43.19" cy="49.96" r="2.5" transform="translate(-14.42 82.25) rotate(-78.43)"/><circle cx="38.88" cy="81.5" r="2.5" transform="matrix(0.2, -0.98, 0.98, 0.2, -48.76, 103.25)"/><circle cx="74.19" cy="52.29" r="2.5" transform="translate(8.08 114.49) rotate(-78.43)"/><circle cx="87.5" cy="42.62" r="2.5" transform="translate(28.2 119.79) rotate(-78.43)"/><circle cx="65.12" cy="39.22" r="2.5" transform="translate(13.66 95.18) rotate(-78.47)"/><circle cx="43.2" cy="25.35" r="2.5" transform="translate(9.71 62.59) rotate(-78.43)"/><circle cx="43.19" cy="9.5" r="2.5" transform="translate(25.22 49.91) rotate(-78.43)"/><path d="M43.19,25.37V49.65a.45.45,0,0,1-.45.45H22.53" fill="none" stroke="#000" stroke-linecap="round" stroke-miterlimit="10" stroke-width="5.23" opacity="0.7" style="isolation:isolate"/></svg>